<?xml version="1.0" encoding="iso-8859-1"?>
<!-- Generator: Adobe Illustrator 17.0.0, SVG Export Plug-In . SVG Version: 6.00 Build 0)  -->
<!DOCTYPE svg PUBLIC "-//W3C//DTD SVG 1.1//EN" "http://www.w3.org/Graphics/SVG/1.1/DTD/svg11.dtd">
<svg version="1.1" id="_x30_9_x5F_solution_x5F_puzzle"
     xmlns="http://www.w3.org/2000/svg" xmlns:xlink="http://www.w3.org/1999/xlink" x="0px" y="0px" width="64px" height="64px"
     viewBox="0 0 64 64" style="enable-background:new 0 0 64 64;" xml:space="preserve">
<g>
    <g>
        <g>
            <g>
                <g>
                    <path style="fill:#f0f0f0;" d="M31,31H18v-2.576l0.499-0.289C20.112,27.2,21,25.732,21,24c0-2.757-2.243-5-5-5s-5,2.243-5,5
                        c0,1.732,0.888,3.2,2.501,4.135L14,28.424V31H0V4c0-2.206,1.794-4,4-4h27v2H4C2.897,2,2,2.897,2,4v25h9.287
                        C9.818,27.715,9,25.954,9,24c0-3.86,3.14-7,7-7s7,3.14,7,7c0,1.954-0.818,3.715-2.287,5H31V31z"/>
                </g>
            </g>
            <g>
                <g>
                    <path style="fill:#f0f0f0;" d="M31,64H4c-2.206,0-4-1.794-4-4V33h2v27c0,1.103,0.897,2,2,2h25v-9.287
                        C27.715,54.182,25.954,55,24,55c-3.86,0-7-3.14-7-7s3.14-7,7-7c1.954,0,3.715,0.818,5,2.287V33h2v13h-2.576l-0.289-0.499
                        C27.2,43.888,25.732,43,24,43c-2.757,0-5,2.243-5,5s2.243,5,5,5c1.732,0,3.2-0.888,4.135-2.501L28.424,50H31V64z"/>
                </g>
            </g>
            <g>
                <g>
                    <path style="fill:#f0f0f0;" d="M60,64H33v-2h27c1.103,0,2-0.897,2-2V35h-9.21c1.436,1.222,2.21,2.95,2.21,5c0,3.86-3.14,7-7,7
                        s-7-3.14-7-7c0-2.05,0.774-3.778,2.21-5H33v-2h13v2.607l-0.54,0.28C43.828,36.735,43,38.119,43,40c0,2.757,2.243,5,5,5
                        s5-2.243,5-5c0-1.881-0.828-3.265-2.46-4.112L50,35.607V33h14v27C64,62.206,62.206,64,60,64z"/>
                </g>
            </g>
            <g>
                <g>
                    <path style="fill:#f0f0f0;" d="M64,31h-2V4c0-1.103-0.897-2-2-2H35v9.287C36.285,9.818,38.046,9,40,9c3.86,0,7,3.14,7,7
                        s-3.14,7-7,7c-1.954,0-3.715-0.818-5-2.287V31h-2V18h2.576l0.289,0.499C36.8,20.112,38.268,21,40,21c2.757,0,5-2.243,5-5
                        s-2.243-5-5-5c-1.732,0-3.2,0.888-4.135,2.501L35.576,14H33V0h27c2.206,0,4,1.794,4,4V31z"/>
                </g>
            </g>
        </g>
        <g>
            <rect x="29" y="4" style="fill:#f0f0f0;" width="2" height="2"/>
        </g>
        <g>
            <rect x="25" y="4" style="fill:#f0f0f0;" width="2" height="2"/>
        </g>
        <g>
            <rect x="21" y="4" style="fill:#f0f0f0;" width="2" height="2"/>
        </g>
        <g>
            <rect x="41" y="58" style="fill:#f0f0f0;" width="2" height="2"/>
        </g>
        <g>
            <rect x="37" y="58" style="fill:#f0f0f0;" width="2" height="2"/>
        </g>
        <g>
            <rect x="33" y="58" style="fill:#f0f0f0;" width="2" height="2"/>
        </g>
        <g>
            <rect x="4" y="33" style="fill:#f0f0f0;" width="2" height="2"/>
        </g>
        <g>
            <rect x="4" y="37" style="fill:#f0f0f0;" width="2" height="2"/>
        </g>
        <g>
            <rect x="4" y="41" style="fill:#f0f0f0;" width="2" height="2"/>
        </g>
        <g>
            <rect x="58" y="21" style="fill:#f0f0f0;" width="2" height="2"/>
        </g>
        <g>
            <rect x="58" y="25" style="fill:#f0f0f0;" width="2" height="2"/>
        </g>
        <g>
            <rect x="58" y="29" style="fill:#f0f0f0;" width="2" height="2"/>
        </g>
    </g>
</g>
</svg>
