<?xml version="1.0" encoding="iso-8859-1"?>
<!-- Generator: Adobe Illustrator 17.0.0, SVG Export Plug-In . SVG Version: 6.00 Build 0)  -->
<!DOCTYPE svg PUBLIC "-//W3C//DTD SVG 1.1//EN" "http://www.w3.org/Graphics/SVG/1.1/DTD/svg11.dtd">
<svg version="1.1" id="_x34_6_x5F_custom_x5F_code_x5F_implementation"
     xmlns="http://www.w3.org/2000/svg" xmlns:xlink="http://www.w3.org/1999/xlink" x="0px" y="0px" width="64px" height="64px"
     viewBox="0 0 64 64" style="enable-background:new 0 0 64 64;" xml:space="preserve">
<g>
    <path style="fill:none;stroke:#f0f0f0;stroke-width:2;stroke-miterlimit:10;" d="M13,32V15c0-1.104,0.896-2,2-2h11"/>
    <path style="fill:none;stroke:#f0f0f0;stroke-width:2;stroke-miterlimit:10;" d="M32,51H15c-1.104,0-2-0.895-2-2V38"/>
    <path style="fill:none;stroke:#f0f0f0;stroke-width:2;stroke-miterlimit:10;" d="M51,32v17c0,1.105-0.896,2-2,2H38"/>
    <path style="fill:none;stroke:#f0f0f0;stroke-width:2;stroke-miterlimit:10;" d="M32,13h17c1.104,0,2,0.896,2,2v11"/>
    <line style="fill:none;stroke:#f0f0f0;stroke-width:2;stroke-miterlimit:10;" x1="16" y1="17" x2="18" y2="17"/>
    <line style="fill:none;stroke:#f0f0f0;stroke-width:2;stroke-miterlimit:10;" x1="46" y1="17" x2="48" y2="17"/>
    <line style="fill:none;stroke:#f0f0f0;stroke-width:2;stroke-miterlimit:10;" x1="16" y1="47" x2="18" y2="47"/>
    <line style="fill:none;stroke:#f0f0f0;stroke-width:2;stroke-miterlimit:10;" x1="46" y1="47" x2="48" y2="47"/>
    <circle style="fill:none;stroke:#f0f0f0;stroke-width:2;stroke-miterlimit:10;" cx="32" cy="8" r="5"/>
    <circle style="fill:none;stroke:#f0f0f0;stroke-width:2;stroke-miterlimit:10;" cx="56" cy="32" r="5"/>
    <circle style="fill:none;stroke:#f0f0f0;stroke-width:2;stroke-miterlimit:10;" cx="32" cy="56" r="5"/>
    <circle style="fill:none;stroke:#f0f0f0;stroke-width:2;stroke-miterlimit:10;" cx="8" cy="32" r="5"/>
    <circle style="fill:none;stroke:#f0f0f0;stroke-width:2;stroke-miterlimit:10;" cx="32" cy="32" r="31"/>
    <polyline style="fill:none;stroke:#f0f0f0;stroke-width:2;stroke-miterlimit:10;" points="25,37 20,32 25,27   "/>
    <polyline style="fill:none;stroke:#f0f0f0;stroke-width:2;stroke-miterlimit:10;" points="39,27 44,32 39,37   "/>
    <line style="fill:none;stroke:#f0f0f0;stroke-width:2;stroke-miterlimit:10;" x1="27" y1="41" x2="37" y2="23"/>
</g>
</svg>
