<?xml version="1.0" encoding="iso-8859-1"?>
<!-- Generator: Adobe Illustrator 17.0.0, SVG Export Plug-In . SVG Version: 6.00 Build 0)  -->
<!DOCTYPE svg PUBLIC "-//W3C//DTD SVG 1.1//EN" "http://www.w3.org/Graphics/SVG/1.1/DTD/svg11.dtd">
<svg version="1.1" id="_x34_7_x5F_muscle_x5F_growth_x5F_training"
     xmlns="http://www.w3.org/2000/svg" xmlns:xlink="http://www.w3.org/1999/xlink" x="0px" y="0px" width="56px" height="64px"
     viewBox="0 0 56 64" style="enable-background:new 0 0 56 64;" xml:space="preserve">
<g>
    <g>
        <path style="fill:#f0f0f0;" d="M28,62c-6.609,0-18.722-2.904-19.234-3.028l0.469-1.944C9.357,57.058,21.629,60,28,60
            c9.534,0,15.808-3.415,20.848-6.158c1.881-1.024,3.537-1.926,5.147-2.544c-0.122-9.141-2.634-12.995-5.064-16.725
            c-1.529-2.347-3.11-4.773-3.907-8.356l1.953-0.434c0.717,3.229,2.132,5.399,3.63,7.698C53.135,37.361,56,41.758,56,52
            c0,0.431-0.275,0.812-0.684,0.949c-1.662,0.554-3.446,1.525-5.513,2.65C44.564,58.451,38.044,62,28,62z"/>
    </g>
    <g>
        <path style="fill:#f0f0f0;" d="M40.293,47.707C38.165,45.579,38,35,38,32h2c0,6,0.653,13.239,1.707,14.293L40.293,47.707z"/>
    </g>
    <g>
        <path style="fill:#f0f0f0;" d="M40.169,47.556C40.111,47.47,34.328,39,25,39c-7.332,0-13.402,3.805-13.463,3.843l-1.075-1.686
            C10.728,40.987,17.066,37,25,37c10.415,0,16.575,9.06,16.832,9.445L40.169,47.556z"/>
    </g>
    <g>
        <path style="fill:#f0f0f0;" d="M30,32c-8.822,0-16-7.178-16-16S21.178,0,30,0s16,7.178,16,16S38.822,32,30,32z M30,2
            c-7.72,0-14,6.28-14,14s6.28,14,14,14s14-6.28,14-14S37.72,2,30,2z"/>
    </g>
    <g>
        <path style="fill:#f0f0f0;" d="M13.168,40.555C11.545,38.12,6.945,34,0,34v-2c6.817,0,12.361,3.739,14.832,7.445L13.168,40.555z"
            />
    </g>
    <g>
        <path style="fill:#f0f0f0;" d="M0,64v-2c3.835,0,5.823-2.256,7.927-4.645C9.813,55.214,11.764,53,15,53v2
            c-2.333,0-3.834,1.704-5.572,3.677C7.23,61.172,4.739,64,0,64z"/>
    </g>
    <g>
        <path style="fill:#f0f0f0;" d="M30,27c-6.065,0-11-4.935-11-11S23.935,5,30,5s11,4.935,11,11S36.065,27,30,27z M30,7
            c-4.963,0-9,4.038-9,9s4.037,9,9,9s9-4.038,9-9S34.963,7,30,7z"/>
    </g>
    <g>
        <path style="fill:#f0f0f0;" d="M30,20c-2.206,0-4-1.794-4-4s1.794-4,4-4s4,1.794,4,4S32.206,20,30,20z M30,14
            c-1.103,0-2,0.897-2,2s0.897,2,2,2s2-0.897,2-2S31.103,14,30,14z"/>
    </g>
    <g>
        <rect x="8" y="15" style="fill:#f0f0f0;" width="2" height="2"/>
    </g>
    <g>
        <rect x="8" y="19" style="fill:#f0f0f0;" width="2" height="2"/>
    </g>
    <g>
        <rect x="8" y="11" style="fill:#f0f0f0;" width="2" height="2"/>
    </g>
</g>
</svg>
