<svg class="logo" xmlns="http://www.w3.org/2000/svg" viewBox="0 0 354 637">
  <path d="M137.867 349.97H0V0h67.166v74.236h70.7v63.63h-70.7V286.34h70.7v63.63z"/>
  <path d="M208.57 137.867h-63.633v-70.87h-70.7V0H208.57v137.867z"/>
  <path d="M279.27 349.97h-63.63v-70.7H74.235V144.937h63.63v70.702h77.773V0h137.866v67.166H279.27V349.97z"/>
  <path d="M286.34 491.373v-70.7h-70.7V357.04h70.7V74.237h67.166v417.137H286.34zM208.57 636.31H0V357.04h137.867v134.333h-70.7v77.772H208.57v67.166z"/>
  <path d="M215.64 636.31v-74.235H74.235v-63.632H215.64v-70.7h63.63v70.7h74.236V636.31H215.64z"/>
</svg>
