<svg version="1.1" id="_x32_7_x5F_astronomy_x5F_and_x5F_planets"
     xmlns="http://www.w3.org/2000/svg" xmlns:xlink="http://www.w3.org/1999/xlink" x="0px" y="0px" width="64px" height="64px"
     viewBox="0 0 64 64" style="enable-background:new 0 0 64 64;" xml:space="preserve">
<g>
    <g>
        <g>
            <g>
                <g>
                    <path style="fill:#f0f0f0;" d="M54,59c-2.757,0-5-2.243-5-5s2.243-5,5-5s5,2.243,5,5S56.757,59,54,59z M54,51
                        c-1.654,0-3,1.346-3,3s1.346,3,3,3s3-1.346,3-3S55.654,51,54,51z"/>
                </g>
            </g>
            <g>
                <g>
                    <path style="fill:#f0f0f0;" d="M9,37c-2.757,0-5-2.243-5-5s2.243-5,5-5s5,2.243,5,5S11.757,37,9,37z M9,29
                        c-1.654,0-3,1.346-3,3s1.346,3,3,3s3-1.346,3-3S10.654,29,9,29z"/>
                </g>
            </g>
            <g>
                <g>
                    <path style="fill:#f0f0f0;" d="M32,22c-2.757,0-5-2.243-5-5s2.243-5,5-5s5,2.243,5,5S34.757,22,32,22z M32,14
                        c-1.654,0-3,1.346-3,3s1.346,3,3,3s3-1.346,3-3S33.654,14,32,14z"/>
                </g>
            </g>
            <g>
                <path style="fill:#f0f0f0;" d="M32,64C14.355,64,0,49.645,0,32S14.355,0,32,0s32,14.355,32,32
                    c0,6.175-1.762,12.168-5.095,17.331l-1.681-1.084C60.349,43.407,62,37.789,62,32C62,15.458,48.542,2,32,2S2,15.458,2,32
                    s13.458,30,30,30c5.802,0,11.431-1.658,16.278-4.797l1.087,1.68C44.194,62.23,38.189,64,32,64z"/>
            </g>
            <g>
                <path style="fill:#f0f0f0;" d="M32,56c-10.626,0-20.107-7.121-23.057-17.317l1.921-0.557C13.568,47.473,22.259,54,32,54
                    c12.131,0,22-9.869,22-22s-9.869-22-22-22c-9.688,0-18.131,6.209-21.008,15.45l-1.909-0.594C12.221,14.773,21.431,8,32,8
                    c13.234,0,24,10.767,24,24S45.234,56,32,56z"/>
            </g>
            <g>
                <path style="fill:#f0f0f0;" d="M32,48c-8.822,0-16-7.178-16-16c0-5.964,3.281-11.393,8.562-14.167
                    c0.221-0.117,0.446-0.229,0.675-0.335l0.845,1.812c-0.199,0.093-0.395,0.19-0.588,0.292C20.871,22.031,18,26.781,18,32
                    c0,7.72,6.28,14,14,14s14-6.28,14-14c0-5.342-3.11-10.294-7.923-12.616l0.869-1.801C44.446,20.236,48,25.896,48,32
                    C48,40.822,40.822,48,32,48z"/>
            </g>
            <g>
                <path style="fill:#f0f0f0;" d="M32,39c-3.86,0-7-3.141-7-7s3.14-7,7-7s7,3.141,7,7S35.86,39,32,39z M32,27c-2.757,0-5,2.243-5,5
                    s2.243,5,5,5s5-2.243,5-5S34.757,27,32,27z"/>
            </g>
        </g>
    </g>
</g>
</svg>
