<?xml version="1.0" standalone="no"?><!DOCTYPE svg PUBLIC "-//W3C//DTD SVG 1.1//EN" "http://www.w3.org/Graphics/SVG/1.1/DTD/svg11.dtd"><svg width="100%" height="100%" viewBox="0 0 1020 620" version="1.1" xmlns="http://www.w3.org/2000/svg" xmlns:xlink="http://www.w3.org/1999/xlink" xml:space="preserve" style="fill-rule:evenodd;clip-rule:evenodd;stroke-linejoin:round;stroke-miterlimit:1.41421;"><path d="M710,0c171.094,0 310,138.906 310,310c0,171.094 -138.906,310 -310,310c-171.094,0 -310,-138.906 -310,-310c0,-171.094 138.906,-310 310,-310ZM760,500l0,-100l-100,0l0,100l100,0ZM920,430l0,-100l-100,0l0,100l100,0ZM760,360l0,-100l-100,0l0,100l100,0ZM560,260l-100,0l0,100l100,0l0,-100ZM920,290l0,-100l-100,0l0,100l100,0ZM760,220l0,-100l-100,0l0,100l100,0Z" style="fill:#fff;fill-opacity:0.698039;"/><path d="M310,0c171.094,0 310,138.906 310,310c0,171.094 -138.906,310 -310,310c-171.094,0 -310,-138.906 -310,-310c0,-171.094 138.906,-310 310,-310ZM260,400l0,100l100,0l0,-100l-100,0ZM105,330l0,100l100,0l0,-100l-100,0ZM560,260l-100,0l0,100l100,0l0,-100ZM260,260l0,100l100,0l0,-100l-100,0ZM105,190l0,100l100,0l0,-100l-100,0ZM260,120l0,100l100,0l0,-100l-100,0Z" style="fill:#fff;fill-opacity:0.698039;"/><path d="M280,170l0,30l30,0l0,-30l-30,0Z" style="fill:#fff;fill-opacity:0.6;"/><path d="M280,310l0,30l30,0l0,-30l-30,0Z" style="fill:#fff;fill-opacity:0.301961;"/><path d="M740,170l0,-30l-30,0l0,30l30,0Z" style="fill:#fff;fill-opacity:0.101961;"/><path d="M125,380l0,30l30,0l0,-30l-30,0Z" style="fill:#fff;fill-opacity:0.6;"/><path d="M280,140l0,30l30,0l0,-30l-30,0Z" style="fill:#fff;fill-opacity:0.6;"/><path d="M280,280l0,30l30,0l0,-30l-30,0Z" style="fill:#fff;fill-opacity:0.6;"/><path d="M900,380l0,-30l-30,0l0,30l30,0Z" style="fill:#fff;fill-opacity:0.301961;"/><path d="M740,200l0,-30l-30,0l0,30l30,0Z" style="fill:#fff;fill-opacity:0.301961;"/><path d="M125,350l0,30l30,0l0,-30l-30,0Z" style="fill:#fff;fill-opacity:0.101961;"/><path d="M900,410l0,-30l-30,0l0,30l30,0Z" style="fill:#fff;fill-opacity:0.6;"/><path d="M155,350l0,30l30,0l0,-30l-30,0Z" style="fill:#fff;fill-opacity:0.6;"/><rect x="510" y="280" width="30" height="30" style="fill:#fff;fill-opacity:0.6;"/><path d="M740,480l0,-30l-30,0l0,30l30,0Z" style="fill:#fff;fill-opacity:0.6;"/><path d="M870,410l0,-30l-30,0l0,30l30,0Z" style="fill:#fff;fill-opacity:0.101961;"/><path d="M155,380l0,30l30,0l0,-30l-30,0Z" style="fill:#fff;fill-opacity:0.101961;"/><path d="M900,270l0,-30l-30,0l0,30l30,0Z" style="fill:#fff;fill-opacity:0.101961;"/><rect x="480" y="280" width="30" height="30" style="fill:#fff;fill-opacity:0.101961;"/><path d="M310,140l0,30l30,0l0,-30l-30,0Z" style="fill:#fff;fill-opacity:0.101961;"/><path d="M740,450l0,-30l-30,0l0,30l30,0Z" style="fill:#fff;fill-opacity:0.101961;"/><path d="M310,280l0,30l30,0l0,-30l-30,0Z" style="fill:#fff;fill-opacity:0.6;"/><path d="M740,340l0,-30l-30,0l0,30l30,0Z" style="fill:#fff;fill-opacity:0.6;"/><path d="M280,420l0,30l30,0l0,-30l-30,0Z" style="fill:#fff;fill-opacity:0.101961;"/><path d="M125,210l0,30l30,0l0,-30l-30,0Z" style="fill:#fff;fill-opacity:0.901961;"/><path d="M870,380l0,-30l-30,0l0,30l30,0Z" style="fill:#fff;fill-opacity:0.901961;"/><path d="M710,200l0,-30l-30,0l0,30l30,0Z" style="fill:#fff;fill-opacity:0.901961;"/><path d="M900,240l0,-30l-30,0l0,30l30,0Z" style="fill:#fff;fill-opacity:0.301961;"/><path d="M310,170l0,30l30,0l0,-30l-30,0Z" style="fill:#fff;fill-opacity:0.301961;"/><path d="M310,310l0,30l30,0l0,-30l-30,0Z" style="fill:#fff;fill-opacity:0.101961;"/><path d="M740,310l0,-30l-30,0l0,30l30,0Z" style="fill:#fff;fill-opacity:0.101961;"/><path d="M280,450l0,30l30,0l0,-30l-30,0Z" style="fill:#fff;fill-opacity:0.101961;"/><path d="M125,240l0,30l30,0l0,-30l-30,0Z" style="fill:#fff;fill-opacity:0.301961;"/><path d="M710,170l0,-30l-30,0l0,30l30,0Z" style="fill:#fff;fill-opacity:0.301961;"/><path d="M870,240l0,-30l-30,0l0,30l30,0Z" style="fill:#fff;fill-opacity:0.6;"/><path d="M710,310l0,-30l-30,0l0,30l30,0Z" style="fill:#fff;fill-opacity:0.6;"/><path d="M310,450l0,30l30,0l0,-30l-30,0Z" style="fill:#fff;fill-opacity:0.6;"/><path d="M155,240l0,30l30,0l0,-30l-30,0Z" style="fill:#fff;fill-opacity:0.901961;"/><path d="M870,270l0,-30l-30,0l0,30l30,0Z" style="fill:#fff;fill-opacity:0.901961;"/><rect x="480" y="310" width="30" height="30" style="fill:#fff;fill-opacity:0.6;"/><path d="M710,450l0,-30l-30,0l0,30l30,0Z" style="fill:#fff;fill-opacity:0.6;"/><path d="M710,340l0,-30l-30,0l0,30l30,0Z" style="fill:#fff;fill-opacity:0.101961;"/><path d="M310,420l0,30l30,0l0,-30l-30,0Z" style="fill:#fff;fill-opacity:0.901961;"/><path d="M155,210l0,30l30,0l0,-30l-30,0Z" style="fill:#fff;fill-opacity:0.101961;"/><rect x="510" y="310" width="30" height="30" style="fill:#fff;fill-opacity:0.901961;"/><path d="M710,480l0,-30l-30,0l0,30l30,0Z" style="fill:#fff;fill-opacity:0.301961;"/></svg>